<svg id="Capa_1" enable-background="new 0 0 512 512" viewBox="0 0 512 512" xmlns="http://www.w3.org/2000/svg"><g><path d="m408.21 173.636c-24.587 0-46.847 9.966-62.959 26.079-48.484 48.485-92.849 142.655-63.274 172.23 4.79 4.79 11.172 6.244 18.523 5.302-3.351 26.901 1.849 49.717 24.023 58.518 58.556 23.241 172.725-92.172 172.725-173.09 0-49.175-39.864-89.039-89.038-89.039z" fill="#a2ddfd"/><path d="m318.234 512c-20.426 0-36.984-16.559-36.984-36.984v-98.837c0-20.425 16.558-36.984 36.984-36.984s36.984 16.559 36.984 36.984v98.837c-.001 20.425-16.559 36.984-36.984 36.984z" fill="#f6ee86"/><path d="m211.411 512c-20.425 0-36.984-16.559-36.984-36.984v-98.837c0-20.425 16.558-36.984 36.984-36.984s36.984 16.559 36.984 36.984v98.837c0 20.425-16.558 36.984-36.984 36.984z" fill="#f6ee86"/><path d="m248.395 376.179c0-20.425-16.558-36.984-36.984-36.984s-36.984 16.559-36.984 36.984v82.635c21.9 6.814 44.941 10.361 68.53 10.362h.018c1.812 0 3.618-.027 5.42-.069z" fill="#eed076"/><path d="m318.234 339.195c-20.426 0-36.984 16.559-36.984 36.984v89.761c26.454-4.498 51.385-13.572 73.967-26.392v-63.369c0-20.425-16.558-36.984-36.983-36.984z" fill="#eed076"/><path d="m452.121 237.235c0 115.872-93.291 211.347-209.162 211.338-57.747-.005-110.027-23.413-147.871-61.257l-65.75-65.75c-31.157-31.157-9.09-84.43 34.972-84.43h32.465c64.02 0 115.918-51.898 115.918-115.918 0-66.01 52.798-120.724 118.806-121.213 66.533-.493 120.622 53.292 120.622 119.711z" fill="#cde9fa"/><path d="m395.122 382.037c-198.696 9.385-166.807-276.905-121.93-366.132-36.214 20.987-60.499 60.549-60.499 105.312 0 64.02-51.898 115.918-115.918 115.918h-32.466c-44.062 0-66.129 53.273-34.972 84.43l65.75 65.75c37.844 37.844 90.124 61.253 147.871 61.257 60.08.006 114.082-25.666 152.164-66.535z" fill="#a2ddfd"/><path d="m197.705 178.205c-10.941 19.335-27.263 35.209-46.947 45.59 42.007 28.042 172.967 93.978 299.705 40.042 1.093-8.721 1.658-17.599 1.658-26.602v-45.486c-95.463 41.429-193.549 14.433-254.416-13.544z" fill="#f6ee86"/><path d="m452.121 191.749v-72.035c0-66.419-54.089-120.204-120.622-119.711-66.008.49-118.806 55.204-118.806 121.213 0 20.721-5.463 40.155-14.988 56.988 60.867 27.978 158.953 54.974 254.416 13.545z" fill="#b39bdb"/><path d="m273.192 15.905c-36.214 20.987-60.499 60.549-60.499 105.312 0 20.721-5.463 40.155-14.988 56.988 12.509 5.75 26.593 11.456 41.901 16.538-1.607-70.063 14.859-141.605 33.586-178.838z" fill="#8f8bd5"/><path d="m189.121 173.636c-24.587 0-46.847 9.966-62.959 26.079-48.485 48.485-92.849 142.655-63.274 172.23 4.79 4.79 11.172 6.244 18.523 5.302-3.351 26.901 1.849 49.717 24.023 58.518 58.556 23.241 172.725-92.172 172.725-173.09 0-49.175-39.863-89.039-89.038-89.039z" fill="#cde9fa"/><g><g><ellipse cx="299.388" cy="105.93" fill="#fff" rx="35.041" ry="27.905"/></g><path d="m319.81 86.567c-4.143 0-7.5-3.357-7.5-7.5v-14.324c0-4.143 3.357-7.5 7.5-7.5s7.5 3.357 7.5 7.5v14.324c0 4.143-3.357 7.5-7.5 7.5z" fill="#4e5660"/></g><path d="m459.225 144.276h-51.708c-9.568 0-16.837-8.606-15.236-18.039l4.999-29.455c1.15-6.774 7.625-11.294 14.38-10.037 25.172 4.683 46.158 21.997 55.539 45.82 2.215 5.624-1.93 11.711-7.974 11.711z" fill="#f6ee86"/><path d="m81.417 384.749c-.588 0-1.186-.07-1.783-.216-4.024-.981-6.491-5.039-5.51-9.064 7.868-32.259 33.1-87.539 70.367-107.613 3.645-1.964 8.195-.602 10.16 3.046 1.964 3.647.601 8.195-3.046 10.159-29.174 15.716-54.186 62.202-62.907 97.963-.836 3.427-3.904 5.725-7.281 5.725z" fill="#a2ddfd"/></g></svg>